<?xml version="1.0" encoding="utf-8"?>
<svg version="1.1" id="Layer_1" x="0px" y="0px" width="100%" height="100%" viewBox="0 0 746 266" enable-background="new 0 0 746 266" xmlns="http://www.w3.org/2000/svg">
  <path opacity="1.000000" d="M 564.485 94.538 C 564.485 86.602 564.405 79.243 564.509 71.886 C 564.616 64.273 567.549 60.946 574.348 60.906 C 589.684 60.815 605.021 60.814 620.357 60.908 C 626.864 60.947 629.668 63.901 629.773 70.779 C 629.904 79.396 629.911 88.019 629.765 96.636 C 629.655 103.179 626.817 106.266 620.747 106.311 C 605.218 106.427 589.686 106.425 574.157 106.316 C 567.518 106.269 565.113 103.298 564.485 94.538 Z" style="stroke: rgb(0, 0, 0); stroke-width: 2px; fill: none;"/>
  <path opacity="1.000000" d="M 614.541 212.454 C 617.436 212.458 619.775 212.316 622.092 212.495 C 626.866 212.862 629.654 215.74 629.746 220.921 C 629.915 230.374 629.913 239.835 629.752 249.289 C 629.658 254.788 626.737 257.842 621.667 257.89 C 609.249 258.006 596.828 258.017 584.41 257.886 C 579.131 257.83 576.253 254.596 576.177 248.81 C 576.059 239.775 576.061 230.737 576.175 221.702 C 576.252 215.608 579.149 212.545 584.868 212.484 C 594.569 212.381 604.272 212.455 614.541 212.454 Z" style="stroke: rgb(0, 0, 0); stroke-width: 2px; fill: none;"/>
  <path opacity="1.000000" d="M 35.875 257.947 C 29.779 257.288 27.126 253.835 27.124 247.85 C 27.122 239.439 27.042 231.027 27.15 222.618 C 27.236 215.876 30.264 212.57 36.486 212.514 C 48.135 212.409 59.786 212.408 71.435 212.514 C 77.618 212.57 80.666 215.918 80.751 222.649 C 80.858 231.058 80.864 239.471 80.749 247.88 C 80.658 254.555 77.573 257.87 71.343 257.926 C 59.694 258.029 48.043 257.955 35.875 257.947 Z" style="stroke: rgb(0, 0, 0); stroke-width: 2px; fill: none;"/>
  <g id="button_esc">
    <path opacity="1.000000" d="M 53.86 55.863 C 47.852 55.862 42.407 55.951 36.966 55.838 C 30.395 55.702 27.241 52.36 27.179 45.47 C 27.104 37.05 27.078 28.626 27.19 20.207 C 27.274 13.925 30.432 10.508 36.239 10.421 C 44.208 10.301 52.181 10.303 60.15 10.422 C 65.527 10.502 68.937 13.923 69.083 19.758 C 69.303 28.594 69.286 37.445 69.092 46.282 C 68.963 52.185 65.722 55.476 60.255 55.834 C 58.318 55.96 56.368 55.86 53.86 55.863 Z" style="stroke: rgb(0, 0, 0); stroke-width: 2px; fill: none;"/>
    <text style="fill: rgb(51, 51, 51); font-family: Inter; font-size: 14px; font-weight: 500; white-space: pre;" x="36.024" y="39.041">Esc</text>
  </g>
  <g id="button_1">
    <path opacity="1.000000" d="M 73.825 46.405 C 73.82 37.653 73.781 29.469 73.831 21.285 C 73.877 13.756 76.811 10.47 83.597 10.405 C 91.154 10.333 98.711 10.326 106.268 10.408 C 112.348 10.475 115.64 13.831 115.768 20.379 C 115.931 28.769 115.907 37.167 115.778 45.558 C 115.675 52.214 112.537 55.694 106.468 55.821 C 98.72 55.982 90.966 55.968 83.217 55.823 C 77.931 55.724 74.352 53.164 73.825 46.405 Z" style="stroke: rgb(0, 0, 0); stroke-width: 2px; fill: none;"/>
    <text style="fill: rgb(51, 51, 51); font-family: Inter; font-size: 23px; font-weight: 500; white-space: pre;" y="41.432" x="89.129">1</text>
  </g>
  <g id="button_q">
    <path opacity="1.000000" d="M 97.162 96.934 C 97.158 88.182 97.119 79.998 97.169 71.815 C 97.214 64.285 100.148 61 106.935 60.934 C 114.491 60.862 122.049 60.856 129.605 60.938 C 135.685 61.004 138.978 64.361 139.106 70.908 C 139.269 79.298 139.245 87.696 139.115 96.087 C 139.013 102.743 135.875 106.223 129.805 106.35 C 122.058 106.512 114.303 106.497 106.555 106.352 C 101.269 106.253 97.69 103.693 97.162 96.934 Z" style="stroke: rgb(0, 0, 0); stroke-width: 2px; fill: none;"/>
    <text style="fill: rgb(51, 51, 51); font-family: Inter; font-size: 23px; font-weight: 500; white-space: pre;" transform="matrix(1, 0, 0, 1, 2.546725, 8.395419)"><tspan x="106.769" y="82.527">Q</tspan><tspan x="106.769" dy="1em">​</tspan></text>
  </g>
  <g id="button_6">
    <path opacity="1.000000" d="M 307.704 47.433 C 307.681 38.064 307.61 29.249 307.698 20.435 C 307.765 13.828 310.913 10.41 317.001 10.331 C 324.752 10.229 332.505 10.239 340.256 10.328 C 346.026 10.394 349.456 13.717 349.602 19.815 C 349.814 28.623 349.804 37.446 349.604 46.255 C 349.471 52.117 346.215 55.579 340.761 55.719 C 332.82 55.922 324.87 55.848 316.926 55.749 C 312.134 55.689 308.824 53.31 307.704 47.433 Z" style="stroke: rgb(0, 0, 0); stroke-width: 2px; fill: none;"/>
    <text style="fill: rgb(51, 51, 51); font-family: Inter; font-size: 23px; font-weight: 500; white-space: pre;" y="41.432" x="320.994">6</text>
  </g>
  <g id="button_4">
    <path opacity="1.000000" d="M 255.789 28.171 C 255.789 34.259 255.867 39.734 255.768 45.206 C 255.64 52.284 252.578 55.718 246.138 55.83 C 238.559 55.962 230.974 55.966 223.394 55.828 C 216.973 55.712 213.866 52.212 213.812 45.245 C 213.75 37.035 213.733 28.824 213.818 20.614 C 213.888 13.92 216.981 10.505 223.082 10.414 C 230.273 10.307 237.467 10.373 244.66 10.391 C 252.981 10.412 255.727 13.413 255.787 22.504 C 255.799 24.188 255.789 25.872 255.789 28.171 Z" style="stroke: rgb(0, 0, 0); stroke-width: 2px; fill: none;"/>
    <text style="fill: rgb(51, 51, 51); font-family: Inter; font-size: 23px; font-weight: 500; white-space: pre;" y="41.432" x="226.673">4</text>
  </g>
  <g id="button_2">
    <path opacity="1.000000" d="M 122.358 52.346 C 121.514 49.994 120.59 48.037 120.552 46.059 C 120.388 37.455 120.4 28.844 120.508 20.238 C 120.586 13.971 123.74 10.514 129.489 10.423 C 137.436 10.296 145.387 10.307 153.334 10.418 C 158.99 10.497 162.293 13.965 162.42 20.199 C 162.596 28.803 162.593 37.417 162.422 46.021 C 162.298 52.242 159.063 55.686 153.272 55.815 C 145.52 55.989 137.752 56.108 130.015 55.717 C 127.534 55.591 125.127 53.775 122.358 52.346 Z" style="stroke: rgb(0, 0, 0); stroke-width: 2px; fill: none;"/>
    <text style="fill: rgb(51, 51, 51); font-family: Inter; font-size: 23px; font-weight: 500; white-space: pre;" y="41.432" x="134.429">2</text>
  </g>
  <g id="button_3">
    <path opacity="1.000000" d="M 167.888 50.627 C 167.484 39.692 167.12 29.215 167.259 18.747 C 167.322 13.996 170.285 10.732 174.621 10.544 C 183.524 10.159 192.458 10.178 201.364 10.511 C 206.456 10.702 208.912 14.641 209.052 19.797 C 209.292 28.607 209.26 37.433 209.072 46.245 C 208.946 52.141 205.73 55.655 200.307 55.797 C 192.17 56.009 184 56.237 175.897 55.632 C 173.225 55.433 169.269 54.312 167.888 50.627 Z" style="stroke: rgb(0, 0, 0); stroke-width: 2px; fill: none;"/>
    <text style="fill: rgb(51, 51, 51); font-family: Inter; font-size: 23px; font-weight: 500; white-space: pre;" y="41.432" x="181.234">3</text>
  </g>
  <g id="button_5">
    <path opacity="1.000000" d="M 266.201 10.754 C 275.584 10.518 284.498 10.36 293.411 10.426 C 298.788 10.466 302.229 13.886 302.375 19.675 C 302.602 28.694 302.642 37.733 302.356 46.749 C 302.178 52.383 298.953 55.653 293.74 55.793 C 285.604 56.011 277.456 56.014 269.32 55.798 C 263.654 55.647 260.548 51.968 260.479 45.758 C 260.391 37.782 260.651 29.797 260.385 21.831 C 260.22 16.873 261.691 13.266 266.201 10.754 Z" style="stroke: rgb(0, 0, 0); stroke-width: 2px; fill: none;"/>
    <text style="fill: rgb(51, 51, 51); font-family: Inter; font-size: 23px; font-weight: 500; white-space: pre;" y="41.432" x="273.981">5</text>
  </g>
  <g id="button_7">
    <path opacity="1.000000" d="M 362.592 55.853 C 356.066 54.861 353.519 51.097 353.718 44.523 C 353.959 36.557 353.711 28.575 353.796 20.601 C 353.867 13.931 356.957 10.498 363.024 10.416 C 370.968 10.308 378.915 10.297 386.859 10.425 C 392.194 10.511 395.558 13.956 395.7 19.812 C 395.914 28.62 395.904 37.443 395.707 46.251 C 395.57 52.366 392.225 55.712 386.361 55.824 C 378.612 55.971 370.859 55.86 362.592 55.853 Z" style="stroke: rgb(0, 0, 0); stroke-width: 2px; fill: none;"/>
    <text style="fill: rgb(51, 51, 51); font-family: Inter; font-size: 23px; font-weight: 500; white-space: pre;" y="41.432" x="368.602">7</text>
  </g>
  <g>
    <path opacity="1.000000" d="M 431.574 10.388 C 439.45 10.722 442.332 13.739 442.408 21.431 C 442.487 29.402 442.513 37.377 442.398 45.347 C 442.296 52.335 439.159 55.727 432.698 55.832 C 425.144 55.955 417.586 55.965 410.033 55.829 C 403.628 55.713 400.505 52.22 400.45 45.305 C 400.385 37.124 400.376 28.94 400.453 20.759 C 400.519 13.76 403.593 10.477 410.114 10.406 C 417.087 10.329 424.062 10.388 431.574 10.388 Z" style="stroke: rgb(0, 0, 0); stroke-width: 2px; fill: none;"/>
    <text style="fill: rgb(51, 51, 51); font-family: Inter; font-size: 23px; font-weight: 500; white-space: pre;" y="41.432" x="414.259">8</text>
  </g>
  <g>
    <text style="fill: rgb(51, 51, 51); font-family: Inter; font-size: 23px; font-weight: 500; white-space: pre;" y="91.629" x="153.248">W</text>
    <path opacity="1.000000" d="M 143.816 73.843 C 143.92 63.585 146.349 60.937 155.168 60.92 C 162.141 60.906 169.115 60.864 176.089 60.934 C 182.227 60.996 185.62 64.288 185.757 70.714 C 185.94 79.31 185.928 87.918 185.761 96.515 C 185.64 102.741 182.417 106.214 176.654 106.342 C 168.715 106.519 160.767 106.531 152.829 106.336 C 147.109 106.195 143.926 102.585 143.842 96.459 C 143.741 89.119 143.817 81.775 143.816 73.843 Z" style="stroke: rgb(0, 0, 0); stroke-width: 2px; fill: none;"/>
  </g>
  <g>
    <path opacity="1.000000" d="M 447.092 30.631 C 447.092 10.387 447.092 10.387 465.195 10.387 C 470.055 10.387 474.915 10.313 479.773 10.409 C 485.513 10.521 488.894 13.877 489.028 20.052 C 489.219 28.888 489.249 37.739 489.009 46.572 C 488.854 52.235 485.731 55.613 480.503 55.78 C 472.346 56.04 464.174 56.008 456.015 55.8 C 450.314 55.655 447.221 51.992 447.112 45.777 C 447.026 40.937 447.093 36.094 447.092 30.631 Z" style="stroke: rgb(0, 0, 0); stroke-width: 2px; fill: none;"/>
    <text style="fill: rgb(51, 51, 51); font-family: Inter; font-size: 23px; font-weight: 500; white-space: pre;" y="41.432" x="460.856">9</text>
  </g>
  <g>
    <path opacity="1.000000" d="M 509.048 55.863 C 506.347 55.857 504.18 56.093 502.076 55.796 C 497.062 55.087 493.792 52.318 493.767 46.386 C 493.731 37.543 493.657 28.699 493.793 19.859 C 493.883 14.009 497.136 10.522 502.57 10.429 C 510.733 10.289 518.9 10.344 527.065 10.411 C 532.538 10.456 535.415 14.032 535.631 19.48 C 535.99 28.516 535.903 37.587 535.667 46.632 C 535.517 52.392 532.107 55.659 526.522 55.822 C 520.888 55.988 515.247 55.862 509.048 55.863 Z" style="stroke: rgb(0, 0, 0); stroke-width: 2px; fill: none;"/>
    <text style="fill: rgb(51, 51, 51); font-family: Inter; font-size: 23px; font-weight: 500; white-space: pre;" y="41.432" x="507.609">0</text>
  </g>
  <g>
    <path opacity="1.000000" d="M 590.168 111.534 C 600.469 111.534 610.188 111.466 619.905 111.558 C 626.786 111.624 629.733 114.887 629.808 122.434 C 629.887 130.432 629.903 138.432 629.802 146.429 C 629.712 153.582 626.721 156.954 620.182 156.973 C 593.165 157.051 566.149 157.052 539.133 156.972 C 532.588 156.953 529.627 153.592 529.536 146.412 C 529.437 138.625 529.474 130.836 529.522 123.048 C 529.573 114.68 532.378 111.572 540.022 111.549 C 556.543 111.5 573.063 111.534 590.168 111.534 Z" style="stroke: rgb(0, 0, 0); stroke-width: 2px; fill: none;"/>
    <text style="fill: rgb(51, 51, 51); font-family: Inter; font-size: 14px; font-weight: 500; white-space: pre;" x="564.474" y="139.078">Enter</text>
  </g>
  <g>
    <path opacity="1.000000" d="M 516.024 162.065 C 550.515 162.064 584.479 162.055 618.443 162.07 C 627.193 162.073 629.798 164.941 629.823 174.507 C 629.842 181.863 629.884 189.22 629.81 196.575 C 629.732 204.131 626.802 207.495 619.976 207.507 C 585.236 207.568 550.495 207.573 515.755 207.501 C 509.246 207.487 506.292 204.097 506.206 196.914 C 506.11 188.929 506.124 180.94 506.201 172.954 C 506.27 165.641 508.509 163.099 516.024 162.065 Z" style="stroke: rgb(0, 0, 0); stroke-width: 2px; fill: none;"/>
    <text style="fill: rgb(51, 51, 51); font-family: Inter; font-size: 14px; font-weight: 500; white-space: pre;" x="552.346" y="189.517">Shift</text>
  </g>
  <g>
    <path opacity="1.000000" d="M 549.776 10.265 C 573.188 10.264 596.061 10.246 618.934 10.273 C 627.081 10.283 629.81 13.261 629.846 22.063 C 629.876 29.423 629.888 36.783 629.844 44.143 C 629.791 52.558 626.959 55.71 619.289 55.724 C 596.219 55.764 573.149 55.769 550.078 55.719 C 542.94 55.704 539.928 52.548 539.851 45.114 C 539.771 37.124 539.784 29.132 539.848 21.142 C 539.905 13.761 542.204 11.165 549.776 10.265 Z" style="stroke: rgb(0, 0, 0); stroke-width: 2px; fill: none;"/>
    <text style="fill: rgb(51, 51, 51); font-family: Inter; font-size: 14px; font-weight: 500; white-space: pre;" x="569.458" y="37.07">Back</text>
  </g>
  <g>
    <path opacity="1.000000" d="M 27.168 185.964 C 27.169 180.713 27.097 176.085 27.188 171.462 C 27.31 165.249 30.07 162.028 35.68 162.013 C 63.444 161.937 91.208 161.937 118.973 162.013 C 124.564 162.028 127.391 165.272 127.458 171.47 C 127.554 180.299 127.558 189.132 127.457 197.962 C 127.383 204.367 124.47 207.417 118.377 207.428 C 91.001 207.477 63.625 207.48 36.249 207.427 C 29.949 207.414 27.265 204.308 27.177 197.312 C 27.132 193.738 27.169 190.163 27.168 185.964 Z" style="stroke: rgb(0, 0, 0); stroke-width: 2px; fill: none;"/>
    <text style="fill: rgb(51, 51, 51); font-family: Inter; font-size: 14px; font-weight: 500; white-space: pre;" x="60.433" y="189.517">Shift</text>
  </g>
  <g>
    <path opacity="1.000000" d="M 33.884 111.597 C 54.387 111.492 74.39 111.427 94.392 111.471 C 101.02 111.486 104.047 114.731 104.13 121.795 C 104.226 129.995 104.233 138.2 104.128 146.4 C 104.037 153.554 101.034 156.868 94.506 156.893 C 75.28 156.967 56.054 156.967 36.828 156.893 C 30.248 156.868 27.268 153.583 27.19 146.46 C 27.102 138.469 27.305 130.473 27.12 122.486 C 26.999 117.226 28.713 113.528 33.884 111.597 Z" style="stroke: rgb(0, 0, 0); stroke-width: 2px; fill: none;"/>
    <text style="fill: rgb(51, 51, 51); font-family: Inter; font-size: 14px; font-weight: 500; white-space: pre;" x="41.626" y="139.622">CapsLk</text>
  </g>
  <g>
    <path opacity="1.000000" d="M 133.937 212.506 C 254.528 212.506 374.256 212.505 493.979 212.508 C 508.743 212.509 512.412 215.173 512.428 225.858 C 512.436 232.171 512.438 238.483 512.428 244.795 C 512.408 255.147 508.61 257.973 494.611 257.975 C 444.291 257.985 393.973 257.979 343.654 257.979 C 263.548 257.979 183.444 257.982 103.338 257.976 C 89.162 257.975 85.35 255.203 85.327 244.939 C 85.312 237.996 85.269 231.052 85.34 224.109 C 85.423 215.853 89.803 212.589 100.969 212.521 C 111.668 212.456 122.369 212.507 133.937 212.506 Z" style="stroke: rgb(0, 0, 0); stroke-width: 2px; fill: none;"/>
    <text style="fill: rgb(51, 51, 51); font-family: Inter; font-size: 14px; font-weight: 500; white-space: pre;" x="288.244" y="241.428">Space</text>
  </g>
  <g>
    <path opacity="1.000000" d="M 43.568 106.393 C 40.67 106.389 38.337 106.478 36.013 106.365 C 30.466 106.096 27.319 102.893 27.211 96.956 C 27.051 88.132 27.059 79.299 27.206 70.474 C 27.307 64.466 30.39 61.018 35.889 60.971 C 51.803 60.837 67.72 60.844 83.635 60.966 C 89.165 61.009 92.321 64.415 92.43 70.356 C 92.592 79.181 92.59 88.014 92.433 96.838 C 92.322 103.049 89.12 106.31 83.149 106.358 C 70.146 106.462 57.141 106.392 43.568 106.393 Z" style="stroke: rgb(0, 0, 0); stroke-width: 2px; fill: none;"/>
    <text style="fill: rgb(51, 51, 51); font-family: Inter; font-size: 14px; font-weight: 500; white-space: pre;" x="47.476" y="89.113">Tab</text>
  </g>
  <g>
    <text style="fill: rgb(51, 51, 51); font-family: Inter; font-size: 23px; font-weight: 500; white-space: pre;" y="91.851" x="204.524">E</text>
    <path opacity="1.000000" d="M 200.261 60.918 C 208.154 60.917 215.517 60.858 222.879 60.937 C 228.969 61.002 232.295 64.347 232.422 70.859 C 232.589 79.458 232.598 88.066 232.414 96.664 C 232.282 102.828 228.995 106.228 223.173 106.349 C 215.425 106.51 207.671 106.503 199.924 106.354 C 193.788 106.236 190.57 102.751 190.499 96.299 C 190.407 87.908 190.412 79.513 190.497 71.121 C 190.565 64.465 193.154 61.702 200.261 60.918 Z" style="stroke: rgb(0, 0, 0); stroke-width: 2px; fill: none;"/>
  </g>
  <g>
    <text style="fill: rgb(51, 51, 51); font-family: Inter; font-size: 23px; font-weight: 500; white-space: pre;" y="92.065" x="250.921">R</text>
    <path opacity="1.000000" d="M 242.165 62.085 C 252.557 61.385 262.373 61.479 272.725 62.116 C 274.994 62.255 278.524 66.824 278.818 69.975 C 279.652 78.911 279.274 88.003 279.057 97.024 C 278.917 102.824 275.578 106.213 270.072 106.339 C 262.127 106.52 254.172 106.531 246.228 106.338 C 240.27 106.194 237.205 102.536 237.151 95.904 C 237.085 87.717 236.82 79.506 237.301 71.352 C 237.477 68.363 238.978 63.07 242.165 62.085 Z" style="stroke: rgb(0, 0, 0); stroke-width: 2px; fill: none;"/>
  </g>
  <g>
    <text style="fill: rgb(51, 51, 51); font-family: Inter; font-size: 23px; font-weight: 500; white-space: pre;" y="92.065" x="297.635">T</text>
    <path opacity="1.000000" d="M 283.793 86.15 C 283.795 80.475 283.69 75.42 283.827 70.372 C 283.986 64.529 287.184 61.05 292.624 60.958 C 300.786 60.819 308.952 60.873 317.115 60.941 C 322.589 60.986 325.458 64.569 325.673 70.015 C 326.03 79.05 325.958 88.12 325.703 97.163 C 325.544 102.823 322.377 106.159 317.148 106.315 C 308.99 106.557 300.818 106.544 292.659 106.327 C 286.976 106.175 283.939 102.494 283.807 96.245 C 283.74 93.089 283.794 89.93 283.793 86.15 Z" style="stroke: rgb(0, 0, 0); stroke-width: 2px; fill: none;"/>
  </g>
  <g>
    <text style="fill: rgb(51, 51, 51); font-family: Inter; font-size: 23px; font-weight: 500; white-space: pre;" y="92.065" x="343.848">Y</text>
    <path opacity="1.000000" d="M 371.529 66.274 C 371.948 77.213 372.471 87.677 372.244 98.122 C 372.136 103.079 368.768 106.169 364.117 106.302 C 355.594 106.547 347.044 106.704 338.537 106.228 C 333.536 105.948 330.435 102.6 330.451 96.696 C 330.473 88.089 330.377 79.481 330.48 70.875 C 330.56 64.315 333.734 61.012 339.944 60.939 C 347.503 60.851 355.099 60.465 362.607 61.141 C 365.611 61.411 369.001 61.598 371.529 66.274 Z" style="stroke: rgb(0, 0, 0); stroke-width: 2px; fill: none;"/>
  </g>
  <g>
    <text style="fill: rgb(51, 51, 51); font-family: Inter; font-size: 23px; font-weight: 500; white-space: pre;" y="92.065" x="390.087">U</text>
    <path opacity="1.000000" d="M 392.408 106.393 C 389.707 106.386 387.54 106.623 385.436 106.325 C 380.422 105.617 377.152 102.848 377.127 96.915 C 377.09 88.073 377.017 79.228 377.153 70.388 C 377.243 64.538 380.495 61.052 385.93 60.959 C 394.093 60.818 402.26 60.873 410.425 60.94 C 415.898 60.985 418.775 64.561 418.991 70.009 C 419.35 79.046 419.263 88.116 419.027 97.162 C 418.877 102.921 415.467 106.188 409.882 106.352 C 404.248 106.517 398.607 106.391 392.408 106.393 Z" style="stroke: rgb(0, 0, 0); stroke-width: 2px; fill: none;"/>
  </g>
  <g>
    <text style="fill: rgb(51, 51, 51); font-family: Inter; font-size: 23px; font-weight: 500; white-space: pre;" y="92.065" x="441.286">I</text>
    <path opacity="1.000000" d="M 436.802 60.917 C 443.75 60.917 450.143 60.838 456.533 60.943 C 462.211 61.035 465.573 64.449 465.709 70.613 C 465.897 79.208 465.876 87.813 465.72 96.409 C 465.606 102.689 462.438 106.201 456.708 106.338 C 448.771 106.528 440.825 106.528 432.888 106.34 C 426.922 106.198 423.852 102.553 423.788 95.945 C 423.719 88.814 423.769 81.682 423.771 74.551 C 423.775 63.134 425.778 60.946 436.802 60.917 Z" style="stroke: rgb(0, 0, 0); stroke-width: 2px; fill: none;"/>
  </g>
  <g>
    <text style="fill: rgb(51, 51, 51); font-family: Inter; font-size: 23px; font-weight: 500; white-space: pre;" y="92.065" x="482.332">O</text>
    <path opacity="1.000000" d="M 512.423 92.235 C 512.372 103.892 510.035 106.385 499.7 106.392 C 493.308 106.396 486.915 106.463 480.524 106.372 C 473.627 106.273 470.501 102.967 470.446 95.744 C 470.383 87.563 470.369 79.381 470.451 71.202 C 470.521 64.267 473.64 60.998 480.189 60.934 C 487.549 60.863 494.91 60.878 502.27 60.929 C 509.338 60.977 512.328 64.272 512.409 72.132 C 512.476 78.634 512.423 85.137 512.423 92.235 Z" style="stroke: rgb(0, 0, 0); stroke-width: 2px; fill: none;"/>
  </g>
  <g>
    <text style="fill: rgb(51, 51, 51); font-family: Inter; font-size: 23px; font-weight: 500; white-space: pre;" y="92.065" x="531.579">P</text>
    <path opacity="1.000000" d="M 558.875 68.284 C 559.021 77.84 559.147 86.865 559.049 95.888 C 558.974 102.874 555.811 106.258 549.337 106.362 C 541.78 106.483 534.218 106.496 526.662 106.357 C 520.272 106.24 517.159 102.731 517.106 95.798 C 517.042 87.613 517.03 79.426 517.11 71.241 C 517.178 64.275 520.277 61 526.82 60.935 C 534.185 60.861 541.556 61.116 548.913 60.848 C 553.877 60.667 557.068 62.788 558.875 68.284 Z" style="stroke: rgb(0, 0, 0); stroke-width: 2px; fill: none;"/>
  </g>
  <g>
    <path opacity="1.000000" d="M 482.845 151.686 C 482.442 140.751 482.077 130.274 482.216 119.806 C 482.279 115.055 485.242 111.791 489.578 111.603 C 498.481 111.217 507.415 111.236 516.321 111.57 C 521.41 111.762 523.87 115.699 524.01 120.856 C 524.249 129.665 524.218 138.491 524.03 147.303 C 523.904 153.198 520.686 156.714 515.264 156.856 C 507.128 157.068 498.958 157.296 490.855 156.691 C 488.183 156.492 483.598 154.312 482.845 151.686 Z" style="stroke: rgb(0, 0, 0); stroke-width: 2px; fill: none;"/>
    <text style="fill: rgb(51, 51, 51); font-family: Inter; font-size: 23px; font-weight: 500; white-space: pre;" y="140.922" x="497.685">L</text>
  </g>
  <g>
    <path opacity="1.000000" d="M 435.436 137.923 C 435.438 131.828 435.33 126.351 435.472 120.883 C 435.623 115.046 438.835 111.578 444.284 111.487 C 452.446 111.35 460.612 111.396 468.775 111.472 C 474.246 111.523 477.105 115.116 477.317 120.564 C 477.669 129.6 477.605 138.669 477.344 147.712 C 477.181 153.371 474 156.694 468.771 156.846 C 460.613 157.083 452.441 157.075 444.283 156.855 C 438.595 156.701 435.585 153.027 435.448 146.754 C 435.388 144.019 435.436 141.281 435.436 137.923 Z" style="stroke: rgb(0, 0, 0); stroke-width: 2px; fill: none;"/>
    <text style="fill: rgb(51, 51, 51); font-family: Inter; font-size: 23px; font-weight: 500; white-space: pre;" y="140.922" x="449.222">K</text>
  </g>
  <g>
    <path opacity="1.000000" d="M 424.07 111.571 C 429.13 113.615 430.875 117.379 430.799 122.554 C 430.684 130.318 430.827 138.086 430.752 145.852 C 430.679 153.351 427.668 156.786 420.964 156.892 C 413.407 157.012 405.845 157.032 398.288 156.885 C 391.925 156.761 388.844 153.231 388.792 146.261 C 388.732 138.285 388.737 130.308 388.789 122.333 C 388.84 114.574 391.784 111.486 399.152 111.458 C 407.292 111.426 415.433 111.482 424.07 111.571 Z" style="stroke: rgb(0, 0, 0); stroke-width: 2px; fill: none;"/>
    <text style="fill: rgb(51, 51, 51); font-family: Inter; font-size: 23px; font-weight: 500; white-space: pre;" y="140.922" x="402.977">J</text>
  </g>
  <g>
    <path opacity="1.000000" d="M 376.399 111.478 C 382.105 112.798 384.107 116.646 384.108 122.088 C 384.109 130.273 384.209 138.46 384.076 146.643 C 383.968 153.283 380.816 156.757 374.738 156.881 C 366.988 157.039 359.232 157.04 351.483 156.88 C 345.379 156.755 342.207 153.239 342.14 146.733 C 342.054 138.339 342.049 129.943 342.142 121.549 C 342.215 114.955 345.369 111.545 351.471 111.472 C 359.61 111.376 367.751 111.453 376.399 111.478 Z" style="stroke: rgb(0, 0, 0); stroke-width: 2px; fill: none;"/>
    <text style="fill: rgb(51, 51, 51); font-family: Inter; font-size: 23px; font-weight: 500; white-space: pre;" y="140.922" x="354.377">H</text>
  </g>
  <g>
    <text style="fill: rgb(51, 51, 51); font-family: Inter; font-size: 23px; font-weight: 500; white-space: pre;" y="140.922" x="263.203">F</text>
    <path opacity="1.000000" d="M 248.916 149.665 C 248.833 140.096 248.764 131.071 248.817 122.047 C 248.859 114.937 251.882 111.546 258.275 111.47 C 266.026 111.377 273.78 111.372 281.532 111.473 C 287.231 111.547 290.598 114.957 290.735 121.12 C 290.927 129.72 290.904 138.332 290.748 146.934 C 290.635 153.22 287.468 156.73 281.732 156.867 C 273.789 157.057 265.84 156.946 257.894 156.903 C 253.549 156.879 250.585 154.576 248.916 149.665 Z" style="stroke: rgb(0, 0, 0); stroke-width: 2px; fill: none;"/>
  </g>
  <g>
    <path opacity="1.000000" d="M 331.603 156.359 C 322.242 156.684 313.334 156.97 304.43 156.852 C 298.726 156.776 295.552 153.086 295.484 146.933 C 295.389 138.328 295.37 129.718 295.493 121.114 C 295.582 114.958 298.832 111.556 304.636 111.476 C 312.582 111.366 320.532 111.361 328.478 111.481 C 333.824 111.563 337.235 114.992 337.381 120.804 C 337.603 129.615 337.902 138.48 337.195 147.229 C 336.944 150.341 336.05 155.024 331.603 156.359 Z" style="stroke: rgb(0, 0, 0); stroke-width: 2px; fill: none;"/>
    <text style="fill: rgb(51, 51, 51); font-family: Inter; font-size: 23px; font-weight: 500; white-space: pre;" y="140.922" x="307.663">G</text>
  </g>
  <g>
    <text style="fill: rgb(51, 51, 51); font-family: Inter; font-size: 23px; font-weight: 500; white-space: pre;" y="140.922" x="169.345">S</text>
    <path opacity="1.000000" d="M 190.774 111.571 C 195.838 113.612 197.578 117.381 197.502 122.553 C 197.388 130.317 197.531 138.086 197.456 145.851 C 197.383 153.352 194.374 156.786 187.669 156.892 C 180.112 157.012 172.549 157.031 164.993 156.885 C 158.63 156.761 155.548 153.231 155.495 146.261 C 155.436 138.286 155.441 130.309 155.493 122.333 C 155.543 114.574 158.488 111.486 165.856 111.458 C 173.996 111.426 182.137 111.482 190.774 111.571 Z" style="stroke: rgb(0, 0, 0); stroke-width: 2px; fill: none;"/>
  </g>
  <g>
    <path opacity="1.000000" d="M 243.275 148.784 C 242.835 153.958 240.376 156.974 236.044 156.974 C 235.935 156.974 208.996 156.977 208.725 156.879 C 204.722 155.434 202.661 150.783 202.413 147.779 C 201.674 138.823 202.041 129.747 202.186 120.721 C 202.274 115.215 205.505 111.612 210.519 111.504 C 218.853 111.323 227.232 110.952 235.506 111.732 C 238.309 111.996 243.065 115.402 243.145 117.539 C 243.588 129.324 243.912 136.566 243.275 148.784 Z" style="stroke: rgb(0, 0, 0); stroke-width: 2px; fill: none;"/>
    <text style="fill: rgb(51, 51, 51); font-family: Inter; font-size: 23px; font-weight: 500; white-space: pre;" y="140.922" x="215.324">D</text>
  </g>
  <g>
    <text style="fill: rgb(51, 51, 51); font-family: Inter; font-size: 23px; font-weight: 500; white-space: pre;" y="140.922" x="121.397">A</text>
    <path opacity="1.000000" d="M 108.821 129.211 C 108.824 125.858 108.688 123.111 108.86 120.387 C 109.202 114.98 111.993 111.692 116.965 111.534 C 125.511 111.261 134.072 111.321 142.622 111.507 C 147.788 111.62 150.5 115.298 150.699 120.434 C 151.05 129.47 150.963 138.538 150.742 147.584 C 150.6 153.383 147.235 156.75 141.692 156.871 C 133.726 157.045 125.75 157.067 117.784 156.862 C 112.067 156.715 108.943 153.074 108.843 146.878 C 108.751 141.196 108.822 135.511 108.821 129.211 Z" style="stroke: rgb(0, 0, 0); stroke-width: 2px; fill: none;"/>
  </g>
  <g>
    <path opacity="1.000000" d="M 174.144 176.131 C 174.143 183.442 174.227 190.156 174.119 196.866 C 174.005 203.888 170.91 207.308 164.483 207.419 C 156.931 207.548 149.374 207.548 141.822 207.419 C 135.354 207.308 132.226 203.873 132.169 196.974 C 132.099 188.585 132.071 180.192 132.181 171.804 C 132.263 165.549 135.418 162.117 141.169 162.009 C 147.946 161.881 154.727 161.974 161.506 161.976 C 171.873 161.979 174.093 164.363 174.144 176.131 Z" style="stroke: rgb(0, 0, 0); stroke-width: 2px; fill: none;"/>
    <text style="fill: rgb(51, 51, 51); font-family: Inter; font-size: 23px; font-weight: 500; white-space: pre;" y="192.359" x="145.517">Z</text>
  </g>
  <g>
    <path opacity="1.000000" d="M 190.795 207.451 C 181.329 207.238 178.827 204.551 178.813 195.117 C 178.801 187.355 178.73 179.591 178.839 171.83 C 178.927 165.569 182.072 162.103 187.806 162.011 C 195.747 161.884 203.692 161.902 211.633 162.004 C 217.064 162.075 220.564 165.386 220.722 171.112 C 220.97 180.125 220.956 189.157 220.729 198.172 C 220.583 203.929 217.203 207.26 211.676 207.404 C 204.899 207.58 198.116 207.449 190.795 207.451 Z" style="stroke: rgb(0, 0, 0); stroke-width: 2px; fill: none;"/>
    <text style="fill: rgb(51, 51, 51); font-family: Inter; font-size: 23px; font-weight: 500; white-space: pre;" y="192.359" x="192.556">X</text>
  </g>
  <g>
    <path opacity="1.000000" d="M 267.462 178.537 C 267.461 185.253 267.582 191.363 267.424 197.463 C 267.261 203.768 264.129 207.265 258.358 207.398 C 250.391 207.583 242.414 207.594 234.448 207.392 C 228.723 207.247 225.564 203.613 225.495 197.424 C 225.401 189.004 225.405 180.581 225.492 172.16 C 225.562 165.499 228.683 162.089 234.794 162.001 C 241.986 161.898 249.18 161.961 256.373 161.98 C 264.675 162.002 267.393 164.995 267.461 174.137 C 267.47 175.4 267.462 176.663 267.462 178.537 Z" style="stroke: rgb(0, 0, 0); stroke-width: 2px; fill: none;"/>
    <text style="fill: rgb(51, 51, 51); font-family: Inter; font-size: 23px; font-weight: 500; white-space: pre;" y="192.359" x="238.755">C</text>
  </g>
  <g>
    <path opacity="1.000000" d="M 324.629 206.887 C 320.12 204.742 318.616 201.37 318.733 196.613 C 318.935 188.432 318.717 180.239 318.812 172.053 C 318.889 165.465 322.045 162.077 328.168 162.001 C 335.921 161.904 343.677 161.903 351.43 162.001 C 357.408 162.076 360.633 165.544 360.744 172.183 C 360.884 180.578 360.889 188.979 360.741 197.373 C 360.63 203.683 357.489 207.307 351.802 207.381 C 342.897 207.498 333.989 207.212 324.629 206.887 Z" style="stroke: rgb(0, 0, 0); stroke-width: 2px; fill: none;"/>
    <text style="fill: rgb(51, 51, 51); font-family: Inter; font-size: 23px; font-weight: 500; white-space: pre;" y="192.359" x="332.169">B</text>
  </g>
  <g>
    <path opacity="1.000000" d="M 384.139 161.975 C 389.185 161.976 393.657 161.903 398.126 161.996 C 403.866 162.115 407.248 165.465 407.382 171.638 C 407.574 180.474 407.603 189.325 407.363 198.158 C 407.209 203.821 404.087 207.2 398.86 207.368 C 390.703 207.629 382.531 207.596 374.371 207.389 C 368.67 207.243 365.539 203.582 365.471 197.368 C 365.381 189.159 365.404 180.949 365.461 172.74 C 365.514 165.263 368.488 162.086 375.401 161.983 C 378.121 161.942 380.843 161.976 384.139 161.975 Z" style="stroke: rgb(0, 0, 0); stroke-width: 2px; fill: none;"/>
    <text style="fill: rgb(51, 51, 51); font-family: Inter; font-size: 23px; font-weight: 500; white-space: pre;" y="192.359" x="378.121">N</text>
  </g>
  <g>
    <path opacity="1.000000" d="M 454.099 187.199 C 454.099 207.184 453.85 207.451 435.826 207.451 C 431.161 207.451 426.493 207.542 421.831 207.427 C 415.301 207.266 412.184 203.91 412.124 196.972 C 412.054 188.763 412.048 180.552 412.126 172.343 C 412.193 165.33 415.275 162.058 421.844 161.994 C 429.424 161.92 437.006 161.912 444.586 161.997 C 450.673 162.066 453.871 165.443 454.068 172.054 C 454.213 176.891 454.098 181.737 454.099 187.199 Z" style="stroke: rgb(0, 0, 0); stroke-width: 2px; fill: none;"/>
    <text style="fill: rgb(51, 51, 51); font-family: Inter; font-size: 23px; font-weight: 500; white-space: pre;" y="192.359" x="423.454">M</text>
  </g>
  <g>
    <path opacity="1.000000" d="M 476.325 207.451 C 473.616 207.451 471.478 207.478 469.34 207.446 C 461.763 207.334 458.805 204.148 458.773 195.998 C 458.742 188.209 458.719 180.419 458.781 172.631 C 458.837 165.47 461.828 162.076 468.238 161.999 C 476.012 161.906 483.79 161.897 491.564 162.005 C 497.253 162.083 500.578 165.537 500.707 171.769 C 500.885 180.395 500.885 189.033 500.707 197.659 C 500.578 203.877 497.318 207.224 491.473 207.416 C 486.618 207.574 481.755 207.45 476.325 207.451 Z" style="stroke: rgb(0, 0, 0); stroke-width: 2px; fill: none;"/>
    <text style="fill: rgb(51, 51, 51); font-family: Inter; font-size: 23px; font-weight: 500; white-space: pre;" y="192.359" x="476.274">,</text>
  </g>
  <g>
    <path opacity="1.000000" d="M 570.186 216.695 C 570.707 228.431 571.457 239.747 570.869 250.981 C 570.742 253.413 565.899 257.345 563.072 257.513 C 550.872 258.241 538.613 257.944 526.378 257.774 C 520.945 257.699 517.931 254.17 517.838 248.098 C 517.707 239.476 517.709 230.849 517.835 222.227 C 517.928 215.835 520.974 212.47 526.839 212.407 C 538.687 212.279 550.542 212.146 562.379 212.544 C 564.931 212.63 567.419 214.953 570.186 216.695 Z" style="stroke: rgb(0, 0, 0); stroke-width: 2px; fill: none;"/>
    <text style="fill: rgb(51, 51, 51); font-family: Inter; font-size: 23px; font-weight: 500; white-space: pre;" y="242.903" x="541.467">.</text>
  </g>
  <g>
    <path opacity="1.000000" d="M 272.128 184.714 C 272.13 179.879 272.031 175.666 272.158 171.46 C 272.336 165.607 275.506 162.112 280.932 162.018 C 289.094 161.876 297.259 161.938 305.423 161.997 C 310.897 162.036 313.785 165.6 314.006 171.044 C 314.371 180.078 314.287 189.147 314.041 198.191 C 313.888 203.853 310.74 207.209 305.512 207.371 C 297.355 207.622 289.182 207.599 281.024 207.387 C 275.331 207.239 272.266 203.567 272.145 197.336 C 272.067 193.338 272.129 189.337 272.128 184.714 Z" style="stroke: rgb(0, 0, 0); stroke-width: 2px; fill: none;"/>
    <text style="fill: rgb(51, 51, 51); font-family: Inter; font-size: 23px; font-weight: 500; white-space: pre;" y="192.359" x="285.352">V</text>
  </g>
</svg>